<?xml version="1.0" encoding="UTF-8" standalone="no"?>
<!-- Generator: Adobe Illustrator 19.0.0, SVG Export Plug-In . SVG Version: 6.00 Build 0)  -->

<svg
   xmlns:dc="http://purl.org/dc/elements/1.1/"
   xmlns:cc="http://creativecommons.org/ns#"
   xmlns:rdf="http://www.w3.org/1999/02/22-rdf-syntax-ns#"
   xmlns:svg="http://www.w3.org/2000/svg"
   xmlns="http://www.w3.org/2000/svg"
   xmlns:sodipodi="http://sodipodi.sourceforge.net/DTD/sodipodi-0.dtd"
   xmlns:inkscape="http://www.inkscape.org/namespaces/inkscape"
   version="1.1"
   id="Checkin"
   x="0px"
   y="0px"
   viewBox="-283 374 45 45"
   style="enable-background:new -283 374 45 45;"
   xml:space="preserve"
   inkscape:version="0.91 r13725"
   sodipodi:docname="address.svg"><metadata
     id="metadata15"><rdf:RDF><cc:Work
         rdf:about=""><dc:format>image/svg+xml</dc:format><dc:type
           rdf:resource="http://purl.org/dc/dcmitype/StillImage" /></cc:Work></rdf:RDF></metadata><defs
     id="defs13" /><sodipodi:namedview
     pagecolor="#ffffff"
     bordercolor="#666666"
     borderopacity="1"
     objecttolerance="10"
     gridtolerance="10"
     guidetolerance="10"
     inkscape:pageopacity="0"
     inkscape:pageshadow="2"
     inkscape:window-width="735"
     inkscape:window-height="480"
     id="namedview11"
     showgrid="false"
     inkscape:zoom="2.6222222"
     inkscape:cx="20.400083"
     inkscape:cy="23.285398"
     inkscape:window-x="0"
     inkscape:window-y="0"
     inkscape:window-maximized="0"
     inkscape:current-layer="Checkin" /><style
     type="text/css"
     id="style3">
	.st0{fill:#FFFFFF;}
</style><g
     id="g5"
     style="fill:#004cd1;fill-opacity:1"><circle
       class="st0"
       cx="-260.4"
       cy="393.5"
       r="5.9"
       id="circle7"
       style="fill:#004cd1;fill-opacity:1" /><path
       class="st0"
       d="M-260.5,374c-12.4,0-22.5,10.1-22.5,22.5s10.1,22.5,22.5,22.5s22.5-10.1,22.5-22.5S-248.1,374-260.5,374z    M-260.5,411.9c-1.4-1.1-11.3-9.1-11.3-17.4c0-6.2,5-11.2,11.2-11.3v0c0,0,0.1,0,0.1,0s0.1,0,0.1,0v0c6.2,0.1,11.2,5.1,11.2,11.3   C-249.2,402.8-259.1,410.8-260.5,411.9z"
       id="path9"
       style="fill:#004cd1;fill-opacity:1" /></g></svg>