<?xml version="1.0" encoding="utf-8"?>
<!-- Generator: Adobe Illustrator 19.0.0, SVG Export Plug-In . SVG Version: 6.00 Build 0)  -->
<svg version="1.1" id="Checkin" xmlns="http://www.w3.org/2000/svg" xmlns:xlink="http://www.w3.org/1999/xlink" x="0px" y="0px"
	 viewBox="-283 374 45 45" style="enable-background:new -283 374 45 45;" xml:space="preserve">
<style type="text/css">
	.st0{fill:#FFFFFF;}
</style>
<g>
	<circle class="st0" cx="-260.4" cy="393.5" r="5.9"/>
	<path class="st0" d="M-260.5,374c-12.4,0-22.5,10.1-22.5,22.5s10.1,22.5,22.5,22.5s22.5-10.1,22.5-22.5S-248.1,374-260.5,374z
		 M-260.5,411.9c-1.4-1.1-11.3-9.1-11.3-17.4c0-6.2,5-11.2,11.2-11.3v0c0,0,0.1,0,0.1,0s0.1,0,0.1,0v0c6.2,0.1,11.2,5.1,11.2,11.3
		C-249.2,402.8-259.1,410.8-260.5,411.9z"/>
</g>
</svg>
