<?xml version="1.0" encoding="UTF-8" standalone="no"?>
<svg id="Layer_1" xmlns:rdf="http://www.w3.org/1999/02/22-rdf-syntax-ns#" xmlns="http://www.w3.org/2000/svg" enable-background="new 0 0 40 35" xml:space="preserve" height="35px" viewBox="0 0 40 35" width="40px" version="1.1" y="0px" x="0px" xmlns:cc="http://creativecommons.org/ns#" xmlns:dc="http://purl.org/dc/elements/1.1/"><metadata id="metadata13"><rdf:RDF><cc:Work rdf:about=""><dc:format>image/svg+xml</dc:format><dc:type rdf:resource="http://purl.org/dc/dcmitype/StillImage"/><dc:title/></cc:Work></rdf:RDF></metadata><path id="path3" fill="#fff" d="m34.157 0.84299c1.1495 1.1495 1.1495 3.0124 0 4.1619l-29.133 29.133c-1.1495 1.1495-3.0124 1.1495-4.1619 0s-1.1495-3.0124 0-4.1619l29.133-29.133c1.1495-1.1495 3.0124-1.1495 4.1619 0z"/><path id="path3-2" fill="#fff" d="m0.86213 0.84299c-1.1495 1.1495-1.1495 3.0124 0 4.1619l29.133 29.133c1.1495 1.1495 3.0124 1.1495 4.1619 0s1.1495-3.0124 0-4.1619l-29.133-29.133c-1.1495-1.1495-3.0124-1.1495-4.1619 0z"/></svg>
