<?xml version="1.0" encoding="utf-8"?>
<!-- Generator: Adobe Illustrator 19.0.0, SVG Export Plug-In . SVG Version: 6.00 Build 0)  -->
<svg version="1.1" id="Layer_1" xmlns="http://www.w3.org/2000/svg" xmlns:xlink="http://www.w3.org/1999/xlink" x="0px" y="0px"
	 viewBox="-283 374 45 45" style="enable-background:new -283 374 45 45;" xml:space="preserve">
<style type="text/css">
	.st0{fill:#FFFFFF;}
</style>
<path class="st0" d="M-260.5,374c-12.4,0-22.5,10.1-22.5,22.5s10.1,22.5,22.5,22.5s22.5-10.1,22.5-22.5S-248.1,374-260.5,374z
	 M-273.8,391.6l7.3,4.4l-7.3,9.1V391.6z M-273,406.1l7.5-9.4l4.9,3l4.9-3l7.5,9.5L-273,406.1L-273,406.1z M-247.2,405.2l-7.3-9.2
	l7.3-4.5V405.2z M-247.2,390.1l-13.3,8.2l-13.3-8.1v-2.2h26.6L-247.2,390.1L-247.2,390.1z"/>
</svg>
