<?xml version="1.0" encoding="utf-8"?>
<!-- Generator: Adobe Illustrator 19.0.0, SVG Export Plug-In . SVG Version: 6.00 Build 0)  -->
<svg version="1.1" id="Layer_1" xmlns="http://www.w3.org/2000/svg" xmlns:xlink="http://www.w3.org/1999/xlink" x="0px" y="0px"
	 viewBox="0 0 26 22" style="enable-background:new 0 0 26 22;" xml:space="preserve">
<g>
	<path style="fill:#FFFFFF;" d="M25,17.4C23,21.6,17.3,22,13.3,22C9.1,22,3.1,21.6,1,17.4c-0.8-1.6-1-3.4-1-5.2
		C0,10,0.6,7.8,2.1,6.1C1.8,5.2,1.7,4.3,1.7,3.4C1.7,2.2,2,1.1,2.5,0c2.5,0,4,1.1,5.9,2.5C10,2.2,11.6,2,13.3,2c1.5,0,3,0.2,4.4,0.5
		C19.5,1,21.1,0,23.5,0c0.5,1.1,0.8,2.2,0.8,3.4c0,0.9-0.1,1.8-0.4,2.6C25.4,7.8,26,10,26,12.2C26,14,25.8,15.8,25,17.4z M18.5,10.5
		c-1,0-2,0.2-3,0.3C14.6,11,13.8,11,13,11c-0.8,0-1.6,0-2.5-0.2c-1-0.1-2-0.3-3-0.3c-2.5,0-4,2.1-4,4.5c0,4.8,4.4,5.5,8.2,5.5h2.6
		c3.8,0,8.2-0.7,8.2-5.5C22.5,12.6,21,10.5,18.5,10.5z M8,18c-1.4,0-2-1.9-2-3c0-1.1,0.6-3,2-3c1.4,0,2,1.9,2,3C10,16.1,9.4,18,8,18
		z M18,18c-1.4,0-2-1.9-2-3c0-1.1,0.6-3,2-3c1.4,0,2,1.9,2,3C20,16.1,19.4,18,18,18z"/>
</g>
</svg>
