<?xml version="1.0" encoding="UTF-8" standalone="no"?>
<svg id="Layer_1" xmlns:rdf="http://www.w3.org/1999/02/22-rdf-syntax-ns#" xmlns="http://www.w3.org/2000/svg" xml:space="preserve" viewBox="0 0 90.000002 73.999997" height="74" width="90" version="1.1" y="0px" x="0px" xmlns:cc="http://creativecommons.org/ns#" xmlns:dc="http://purl.org/dc/elements/1.1/"><metadata id="metadata13"><rdf:RDF><cc:Work rdf:about=""><dc:format>image/svg+xml</dc:format><dc:type rdf:resource="http://purl.org/dc/dcmitype/StillImage"/><dc:title/></cc:Work></rdf:RDF></metadata><style id="style3" type="text/css">
	.st0{fill-rule:evenodd;clip-rule:evenodd;fill:#FFFFFF;}
</style><path id="path5" d="m35.85 5.3467e-8c1.772 4.332 0.984 6.3995-2.067 8.4671-5.218 3.6429-10.337 7.5809-14.766 12.11-5.119 5.1196-6.8909 11.814-5.3158 19.002 0.98442 4.6273 3.347 5.6119 7.9738 4.7258 3.7408-0.68918 7.7769-1.5753 11.419-0.88609 5.6112 1.083 9.0566 5.3165 10.139 10.83 1.0829 5.9072-0.19688 11.322-5.4143 15.359-13.093 10.14-32.978 1.771-36.817-15.95-3.741-17.624 3.2483-31.801 16.735-42.828 5.316-4.332 11.813-7.1872 18.113-10.83z" fill-rule="evenodd" class="st0" clip-rule="evenodd" fill="#fff"/><path id="path7" d="m82.511 1.083c1.3782 3.5443 0.19688 5.5134-2.6579 7.4825-5.2174 3.6428-10.336 7.581-14.668 12.11-5.119 5.3165-6.7925 11.913-5.119 19.199 0.88597 4.1351 3.5439 5.6119 7.6784 4.5289 3.1501-0.78763 6.4971-1.8706 9.5488-1.4768 6.2018 0.78763 10.336 4.7258 12.108 10.732 1.7719 6.1042-0.49221 12.504-5.5127 16.146-13.091 9.845-32.386 1.477-36.619-15.851-2.264-9.353-0.787-18.214 3.347-26.681 6.104-12.602 18.606-22.842 31.895-26.189z" fill-rule="evenodd" class="st0" clip-rule="evenodd" fill="#fff"/></svg>
