<?xml version="1.0" encoding="UTF-8" standalone="no"?>
<!-- Generator: Adobe Illustrator 19.0.0, SVG Export Plug-In . SVG Version: 6.00 Build 0)  -->

<svg
   xmlns:dc="http://purl.org/dc/elements/1.1/"
   xmlns:cc="http://creativecommons.org/ns#"
   xmlns:rdf="http://www.w3.org/1999/02/22-rdf-syntax-ns#"
   xmlns:svg="http://www.w3.org/2000/svg"
   xmlns="http://www.w3.org/2000/svg"
   xmlns:sodipodi="http://sodipodi.sourceforge.net/DTD/sodipodi-0.dtd"
   xmlns:inkscape="http://www.inkscape.org/namespaces/inkscape"
   version="1.1"
   id="Layer_1"
   x="0px"
   y="0px"
   viewBox="-5 97 600 600"
   style="enable-background:new -5 97 600 600;"
   xml:space="preserve"
   inkscape:version="0.91 r13725"
   sodipodi:docname="skype.svg"><metadata
     id="metadata15"><rdf:RDF><cc:Work
         rdf:about=""><dc:format>image/svg+xml</dc:format><dc:type
           rdf:resource="http://purl.org/dc/dcmitype/StillImage" /></cc:Work></rdf:RDF></metadata><defs
     id="defs13" /><sodipodi:namedview
     pagecolor="#ffffff"
     bordercolor="#666666"
     borderopacity="1"
     objecttolerance="10"
     gridtolerance="10"
     guidetolerance="10"
     inkscape:pageopacity="0"
     inkscape:pageshadow="2"
     inkscape:window-width="735"
     inkscape:window-height="480"
     id="namedview11"
     showgrid="false"
     inkscape:zoom="0.39333333"
     inkscape:cx="300"
     inkscape:cy="300"
     inkscape:window-x="0"
     inkscape:window-y="0"
     inkscape:window-maximized="0"
     inkscape:current-layer="Layer_1" /><style
     type="text/css"
     id="style3">
	.st0{fill:#FFFFFF;}
</style><g
     id="g5"
     style="fill-opacity:1;fill:#004cd1"><path
       class="st0"
       d="M274.6,372.1c-45.1-11.2-20.4-50.5,16.1-49.9c35.4,0.6,53.5,38.8,69.5,36.8c16.1-2,29.8-26.6,4.5-48.6   c-21.9-19.1-49.6-29.6-92.1-25.6c-33.4,3.1-65,25-68.9,67.7c-3.9,42.7,45.7,64.4,85,70.3c27.5,4.1,65.1,17.7,42.5,44   c-20.7,24.2-59.9,9.2-70.2,2.7c-10.3-6.6-21.9-30.3-41.3-28.9c-19.4,1.3-28.9,27.2-5.1,49.9c21.3,20.3,44.5,31.5,94,28.9   c49.6-2.6,94.1-47.3,76.7-89.3C368.1,387.8,319.8,383.2,274.6,372.1z"
       id="path7"
       style="fill-opacity:1;fill:#004cd1" /><path
       class="st0"
       d="M295,97C129.3,97-5,231.3-5,397c0,165.7,134.3,300,300,300s300-134.3,300-300C595,231.3,460.7,97,295,97z    M371.7,566.7c-18,0-34.9-5.3-49.2-14.2c-9.2,1.7-18.7,2.6-28.4,2.6c-86.1,0-155.8-70.4-155.8-157.3c0-8.4,0.7-16.7,1.9-24.8   c-9.5-14.8-15-32.4-15-51.4c0-52.1,41.6-94.4,93-94.4c18.7,0,36.1,5.6,50.8,15.3c8.2-1.4,16.6-2.1,25.1-2.1   c86.1,0,155.8,70.5,155.8,157.3c0,7.2-0.5,14.3-1.5,21.3c10.2,15.1,16.1,33.4,16.2,53.2C464.7,524.5,423.1,566.7,371.7,566.7z"
       id="path9"
       style="fill-opacity:1;fill:#004cd1" /></g></svg>