<?xml version="1.0" encoding="utf-8"?>
<!-- Generator: Adobe Illustrator 19.0.0, SVG Export Plug-In . SVG Version: 6.00 Build 0)  -->
<svg version="1.1" id="Layer_1" xmlns="http://www.w3.org/2000/svg" xmlns:xlink="http://www.w3.org/1999/xlink" x="0px" y="0px"
	 viewBox="0 0 24 22.9" style="enable-background:new 0 0 24 22.9;" xml:space="preserve">
<g>
	<path style="fill:#FFFFFF;" d="M2.9,5.3L2.9,5.3C1.1,5.3,0,4.2,0,2.7C0,1.2,1.2,0,2.9,0c1.8,0,2.9,1.2,2.9,2.7
		C5.8,4.2,4.7,5.3,2.9,5.3z M5.5,22.9H0.3V7.5h5.2V22.9z M24,22.9h-5.1v-8.3c0-2.1-0.8-3.5-2.6-3.5c-1.4,0-2.3,1-2.6,1.9
		c-0.1,0.3-0.2,0.8-0.2,1.3v8.6H8.3c0.1-14,0-15.5,0-15.5h5.1v2.3h0c0.7-1.1,1.9-2.6,4.7-2.6c3.4,0,5.9,2.2,5.9,7V22.9z"/>
</g>
</svg>
