<?xml version="1.0" encoding="UTF-8" standalone="no"?>
<!-- Generator: Adobe Illustrator 16.0.0, SVG Export Plug-In . SVG Version: 6.00 Build 0)  -->

<svg
   xmlns:dc="http://purl.org/dc/elements/1.1/"
   xmlns:cc="http://creativecommons.org/ns#"
   xmlns:rdf="http://www.w3.org/1999/02/22-rdf-syntax-ns#"
   xmlns:svg="http://www.w3.org/2000/svg"
   xmlns="http://www.w3.org/2000/svg"
   xmlns:sodipodi="http://sodipodi.sourceforge.net/DTD/sodipodi-0.dtd"
   xmlns:inkscape="http://www.inkscape.org/namespaces/inkscape"
   version="1.1"
   id="background"
   x="0px"
   y="0px"
   width="190"
   height="123"
   viewBox="0 0 190 123"
   enable-background="new 0 0 171.5 132.5"
   xml:space="preserve"
   inkscape:version="0.91 r13725"
   sodipodi:docname="stars2.svg"><metadata
     id="metadata25"><rdf:RDF><cc:Work
         rdf:about=""><dc:format>image/svg+xml</dc:format><dc:type
           rdf:resource="http://purl.org/dc/dcmitype/StillImage" /><dc:title></dc:title></cc:Work></rdf:RDF></metadata><defs
     id="defs23" /><sodipodi:namedview
     pagecolor="#ffffff"
     bordercolor="#666666"
     borderopacity="1"
     objecttolerance="10"
     gridtolerance="10"
     guidetolerance="10"
     inkscape:pageopacity="0"
     inkscape:pageshadow="2"
     inkscape:window-width="1366"
     inkscape:window-height="705"
     id="namedview21"
     showgrid="false"
     inkscape:zoom="1"
     inkscape:cx="265.88899"
     inkscape:cy="143.21009"
     inkscape:window-x="-8"
     inkscape:window-y="-8"
     inkscape:window-maximized="1"
     inkscape:current-layer="background" /><circle
     cx="-192.07855"
     cy="-1.6329714"
     r="4.25"
     id="circle3"
     style="fill:none;fill-opacity:1;stroke:#3552ce;stroke-opacity:1"
     transform="matrix(-0.96592583,-0.25881905,0.25881905,-0.96592583,0,0)" /><circle
     cx="-148.07855"
     cy="34.367027"
     r="4.25"
     id="circle5"
     style="fill:none;fill-opacity:1;stroke:#3552ce;stroke-opacity:1"
     transform="matrix(-0.96592583,-0.25881905,0.25881905,-0.96592583,0,0)" /><circle
     cx="-123.57857"
     cy="-41.132969"
     r="4.75"
     id="circle7"
     style="fill:none;fill-opacity:1;stroke:#3552ce;stroke-opacity:1"
     transform="matrix(-0.96592583,-0.25881905,0.25881905,-0.96592583,0,0)" /><circle
     cx="-188.07855"
     cy="-71.632973"
     r="4.25"
     id="circle9"
     style="fill:none;fill-opacity:1;stroke:#3552ce;stroke-opacity:1"
     transform="matrix(-0.96592583,-0.25881905,0.25881905,-0.96592583,0,0)" /><circle
     cx="-79.07856"
     cy="2.3670285"
     r="2.75"
     id="circle11"
     style="fill:none;fill-opacity:1;stroke:#3552ce;stroke-opacity:1"
     transform="matrix(-0.96592583,-0.25881905,0.25881905,-0.96592583,0,0)" /><circle
     cx="-70.07856"
     cy="-52.632969"
     r="1.911"
     id="circle13"
     style="fill:none;fill-opacity:1;stroke:#3552ce;stroke-opacity:1"
     transform="matrix(-0.96592583,-0.25881905,0.25881905,-0.96592583,0,0)" /><circle
     cx="-29.07856"
     cy="-89.632973"
     r="4.25"
     id="circle15"
     style="fill:none;fill-opacity:1;stroke:#3552ce;stroke-opacity:1"
     transform="matrix(-0.96592583,-0.25881905,0.25881905,-0.96592583,0,0)" /><polyline
     stroke-miterlimit="10"
     points="72.75,52.75 117.25,96.25 4.25,92.25 48.25,128.25   117.25,96.25 167.25,4.25 126.25,41.25 72.75,54.334 8.25,22.25 "
     id="polyline17"
     style="fill:none;fill-opacity:1;stroke:#3552ce;stroke-miterlimit:10;stroke-opacity:1"
     transform="matrix(-0.96592583,-0.25881905,0.25881905,-0.96592583,165.34013,141.49756)" /><line
     stroke-miterlimit="10"
     x1="152.46713"
     y1="3.1165612"
     x2="163.17033"
     y2="116.75385"
     id="line19"
     style="fill:none;fill-opacity:1;stroke:#3552ce;stroke-miterlimit:10;stroke-opacity:1" /><path
     style="fill:none;fill-opacity:1;stroke:#3552ce;stroke-width:1;stroke-linecap:square;stroke-miterlimit:4;stroke-dasharray:12, 12;stroke-dashoffset:0;stroke-opacity:1"
     d="m 186.91337,48.138381 c 1.34272,0.752038 2.0737,2.614188 1.64743,4.196767 -0.28042,1.041062 -1.5268,2.17987 -2.65632,2.427064 -2.04542,0.447632 -4.12013,-0.980264 -4.37457,-3.010744 l -0.12718,-1.014899 2.42354,0.775188 c 1.33295,0.42635 2.44714,0.687109 2.47599,0.579447 0.0289,-0.107656 -0.57157,-1.039369 -1.33427,-2.070472 -0.76269,-1.031103 -1.37151,-1.931462 -1.35293,-2.000798 0.0514,-0.191995 2.07841,-0.425048 2.46422,-0.283329 0.18657,0.06853 0.56191,0.24933 0.83409,0.401775 z"
     id="path4153"
     inkscape:connector-curvature="0" /><path
     style="fill:none;fill-opacity:1;stroke:#3552ce;stroke-width:1;stroke-linecap:square;stroke-miterlimit:4;stroke-dasharray:12, 12;stroke-dashoffset:0;stroke-opacity:1"
     d="m 186.56848,48.620252 c 0.6693,0.324261 1.51137,1.9873 1.496,2.954507 -0.0167,1.048152 -1.26634,2.308206 -2.51643,2.53732 -0.87674,0.160687 -1.26275,0.09429 -1.94829,-0.335107 -0.47021,-0.294524 -1.02309,-0.517841 -1.22863,-0.496262 -0.44808,0.04704 -0.74765,-0.538273 -0.86498,-1.690004 l -0.0865,-0.848713 2.41506,0.772475 c 1.32828,0.424862 2.43982,0.680095 2.47007,0.567188 0.0302,-0.112908 -0.28817,-0.649851 -0.7076,-1.193205 -0.41944,-0.543356 -0.67715,-1.109491 -0.5727,-1.258079 0.10446,-0.148588 0.0611,-0.533539 -0.0963,-0.855445 -0.15798,-0.323043 -0.15584,-0.550349 0.005,-0.507312 0.16005,0.04289 0.46527,0.07763 0.67825,0.07723 0.21299,-4.09e-4 0.64375,0.123522 0.95724,0.275405 z"
     id="path4155"
     inkscape:connector-curvature="0" /><path
     style="fill:none;fill-opacity:1;stroke:#3552ce;stroke-width:1;stroke-linecap:square;stroke-miterlimit:4;stroke-dasharray:12, 12;stroke-dashoffset:0;stroke-opacity:1"
     d="m 185.46685,48.701286 c -0.04,0.149136 0.17721,0.338107 0.4826,0.419936 0.79573,0.213214 1.5412,1.788719 1.28998,2.726281 -0.12969,0.48401 -0.55234,0.983468 -1.09962,1.299437 -0.80692,0.465876 -1.02509,0.46128 -2.36402,-0.04981 -0.94462,-0.360578 -1.51984,-0.739616 -1.59959,-1.05406 -0.0685,-0.270056 -0.24313,-0.455395 -0.38806,-0.411865 -0.14493,0.04353 -0.28637,-0.138496 -0.31429,-0.404494 -0.0451,-0.429029 0.22173,-0.396476 2.36259,0.288295 1.32736,0.424562 2.43813,0.679559 2.46838,0.566652 0.0302,-0.112908 -0.28817,-0.649851 -0.70761,-1.193205 -0.41943,-0.543356 -0.67714,-1.109491 -0.57269,-1.25808 0.10446,-0.148588 0.0611,-0.533538 -0.0963,-0.855445 -0.25775,-0.527034 -0.24157,-0.573318 0.16253,-0.465041 0.24681,0.06614 0.41606,0.242264 0.3761,0.391399 z"
     id="path4157"
     inkscape:connector-curvature="0" /><path
     style="fill:none;fill-opacity:1;stroke:#3552ce;stroke-width:1;stroke-linecap:square;stroke-miterlimit:4;stroke-dasharray:12, 12;stroke-dashoffset:0;stroke-opacity:1"
     d="m 184.92053,53.112775 c -0.21673,0.02588 -0.44802,-0.04642 -0.51398,-0.160662 -0.066,-0.114244 0.11137,-0.13542 0.39405,-0.04705 0.3124,0.09765 0.35943,0.17912 0.11993,0.207718 z"
     id="path4159"
     inkscape:connector-curvature="0" /><path
     style="fill:none;fill-opacity:1;stroke:#3552ce;stroke-width:1;stroke-linecap:square;stroke-miterlimit:4;stroke-dasharray:12, 12;stroke-dashoffset:0;stroke-opacity:1"
     d="m 184.99605,48.486627 c -0.0452,0.205872 -0.0496,0.273325 -0.0253,0.387243 0.0682,0.320253 0.32016,0.551694 0.78822,0.724177 0.19351,0.07131 0.3056,0.155875 0.46826,0.353267 0.3899,0.473182 0.6371,1.321499 0.51637,1.77207 -0.0636,0.237289 -0.2884,0.549216 -0.54921,0.762018 -0.0796,0.06495 -0.25392,0.180162 -0.38738,0.256034 l -0.24267,0.13795 -0.0836,-0.125632 c -0.11522,-0.173125 -0.22868,-0.235547 -0.61757,-0.33975 -0.28711,-0.07693 -0.33871,-0.08413 -0.45819,-0.06359 -0.16204,0.02781 -0.28121,0.08912 -0.37577,0.193343 -0.0387,0.04262 -0.0782,0.07533 -0.0878,0.07269 -0.0957,-0.02628 -0.67622,-0.296068 -0.84084,-0.390744 -0.31223,-0.179571 -0.41938,-0.281059 -0.47879,-0.453498 -0.0274,-0.07955 -0.0891,-0.201054 -0.13717,-0.270007 -0.0848,-0.121711 -0.0865,-0.130389 -0.0593,-0.297204 0.0154,-0.09451 0.0339,-0.175229 0.0411,-0.17938 0.012,-0.0069 2.90445,0.871607 3.61351,1.097504 0.19912,0.06339 0.30089,0.08715 0.2954,0.06901 -0.005,-0.0153 -0.37674,-0.539038 -0.82699,-1.163874 -0.45026,-0.624835 -0.83287,-1.158908 -0.85025,-1.186828 -0.0299,-0.04801 -0.0185,-0.06013 0.2095,-0.22356 0.13261,-0.09504 0.24003,-0.182762 0.23872,-0.19494 -0.001,-0.01217 -0.17235,-0.262089 -0.38008,-0.555357 -0.20774,-0.293269 -0.36648,-0.539702 -0.35275,-0.547629 0.0241,-0.01391 0.46978,-0.07528 0.58219,-0.08017 0.0531,-0.0023 0.0531,0.0064 3.4e-4,0.246901 z"
     id="path4165"
     inkscape:connector-curvature="0" /><path
     style="fill:none;fill-opacity:1;stroke:#3552ce;stroke-width:1;stroke-linecap:square;stroke-miterlimit:4;stroke-dasharray:12, 12;stroke-dashoffset:0;stroke-opacity:1"
     d="m 184.98223,49.75436 c 0.0966,0.0817 0.34168,0.212611 0.6541,0.349346 0.20872,0.09135 0.50197,0.620612 0.59326,1.070723 0.0429,0.211589 0.0427,0.246736 -0.003,0.415678 -0.0272,0.101499 -0.0638,0.192829 -0.0813,0.202955 -0.0223,0.01285 -0.24365,-0.275633 -0.73304,-0.9552 -0.38562,-0.535485 -0.71134,-0.990433 -0.7238,-1.010994 -0.0182,-0.03001 -0.003,-0.05027 0.0789,-0.102714 l 0.10156,-0.06533 0.11292,0.09553 z"
     id="path4167"
     inkscape:connector-curvature="0" /><path
     style="fill:none;fill-opacity:1;stroke:#3552ce;stroke-width:1;stroke-linecap:square;stroke-miterlimit:4;stroke-dasharray:12, 12;stroke-dashoffset:0;stroke-opacity:1"
     d="m 185.54828,51.966187 c 0.16171,0.0695 0.26101,0.211229 0.16765,0.239269 -0.015,0.0045 -0.0795,-0.02461 -0.14324,-0.06462 -0.0684,-0.043 -0.24447,-0.113182 -0.42987,-0.171369 -0.3103,-0.09739 -0.31378,-0.0992 -0.29881,-0.155062 0.0151,-0.05648 0.0154,-0.05646 0.30788,0.02535 0.16101,0.04501 0.33938,0.101922 0.39639,0.126422 z"
     id="path4169"
     inkscape:connector-curvature="0" /><path
     style="fill:none;fill-opacity:1;stroke:#3552ce;stroke-width:1;stroke-linecap:square;stroke-miterlimit:4;stroke-dasharray:12, 12;stroke-dashoffset:0;stroke-opacity:1"
     d="m 183.16099,49.453866 c 0.34224,0.476027 0.61501,0.86969 0.60615,0.874805 -0.0243,0.01401 -1.9847,-0.58285 -2.01295,-0.612843 -0.0505,-0.05358 0.2999,-0.616746 0.57383,-0.922361 0.2206,-0.246131 0.12902,-0.318739 0.83297,0.660395 z"
     id="path4171"
     inkscape:connector-curvature="0" /><path
     style="fill:none;fill-opacity:1;stroke:#3552ce;stroke-width:1;stroke-linecap:square;stroke-miterlimit:4;stroke-dasharray:12, 12;stroke-dashoffset:0;stroke-opacity:1"
     d="m 183.71254,51.920166 c 0.10589,0.03231 0.19868,0.061 0.20622,0.06375 l 0.0137,0.005 -0.0395,0.02338 -0.0395,0.02338 -0.11682,-0.05451 c -0.0643,-0.02998 -0.1554,-0.07358 -0.20254,-0.09687 l -0.0857,-0.04236 0.0358,0.0097 c 0.0197,0.0053 0.12246,0.03613 0.22835,0.06843 z"
     id="path4173"
     inkscape:connector-curvature="0" /><path
     style="fill:none;fill-opacity:1;stroke:#3552ce;stroke-width:1;stroke-linecap:square;stroke-miterlimit:4;stroke-dasharray:12, 12;stroke-dashoffset:0;stroke-opacity:1"
     d="m 184.51118,48.356549 c -0.009,0.03826 -0.0179,0.08153 -0.0205,0.09617 -0.003,0.01751 -0.006,0.02576 -0.008,0.02412 -0.009,-0.0061 -0.1136,-0.165796 -0.11032,-0.16773 0.005,-0.0029 0.14528,-0.02447 0.15058,-0.02314 0.003,6.95e-4 -0.001,0.02416 -0.0117,0.0706 z"
     id="path4175"
     inkscape:connector-curvature="0" /><path
     style="fill:none;fill-opacity:1;stroke:#3552ce;stroke-width:1;stroke-linecap:square;stroke-miterlimit:4;stroke-dasharray:12, 12;stroke-dashoffset:0;stroke-opacity:1"
     d="m 182.51691,49.416266 0.02,0.02789 -0.0304,-0.0082 c -0.0167,-0.0045 -0.0309,-0.0098 -0.0316,-0.01187 -6.1e-4,-0.002 0.004,-0.01091 0.0104,-0.01973 l 0.0115,-0.01602 0.02,0.02789 z"
     id="path4177"
     inkscape:connector-curvature="0" /><path
     style="fill:none;fill-opacity:1;stroke:#3552ce;stroke-width:1;stroke-linecap:square;stroke-miterlimit:4;stroke-dasharray:12, 12;stroke-dashoffset:0;stroke-opacity:1"
     d="m 153.75463,1.8882887 c 0.75494,0.411743 1.52805,1.38524 1.74918,2.202552 0.32648,1.206664 0.049,2.510846 -0.72918,3.427264 -0.28536,0.336054 -0.21166,0.372679 -0.7502,-0.372778 -0.22173,-0.306914 -0.34504,-0.548337 -0.36375,-0.712162 -0.0156,-0.136314 -0.11296,-1.158603 -0.21642,-2.27175 -0.10345,-1.113146 -0.19388,-2.036874 -0.20093,-2.052741 -0.0228,-0.05136 -1.00959,0.05731 -1.02447,0.112864 -0.008,0.02956 0.04,0.611568 0.1064,1.293285 0.0665,0.681717 0.1142,1.264163 0.10612,1.294319 -0.008,0.03014 -0.0817,-0.01361 -0.16362,-0.09706 l -0.14893,-0.15192 -1.94286,0.339281 c -1.06857,0.186601 -1.95162,0.324096 -1.96233,0.305541 -0.0107,-0.01851 -0.008,-0.185323 0.006,-0.370603 0.12142,-1.629527 1.37925,-3.03979 2.97568,-3.336308 0.31161,-0.05787 0.71846,-0.09627 0.90411,-0.08532 0.45624,0.0269 1.25214,0.255587 1.65556,0.475595 z"
     id="path4179"
     inkscape:connector-curvature="0" /><path
     style="fill:none;fill-opacity:1;stroke:#3552ce;stroke-width:1;stroke-linecap:square;stroke-miterlimit:4;stroke-dasharray:12, 12;stroke-dashoffset:0;stroke-opacity:1"
     d="m 152.17912,6.3768617 0.47371,0.669477 0.0809,0.822555 c 0.0445,0.452401 0.0768,0.837981 0.0717,0.856826 -0.0177,0.06597 -0.70108,0.13419 -1.12096,0.11195 -1.24231,-0.06583 -2.29715,-0.731832 -2.95468,-1.865544 -0.18864,-0.325269 -0.33641,-0.615959 -0.32837,-0.64598 0.0105,-0.03931 2.92517,-0.588784 3.26609,-0.615756 0.0208,-0.0017 0.25106,0.298262 0.5116,0.666472 z"
     id="path4181"
     inkscape:connector-curvature="0" /><path
     style="fill:none;fill-opacity:1;stroke:#3552ce;stroke-width:1;stroke-linecap:square;stroke-miterlimit:4;stroke-dasharray:12, 12;stroke-dashoffset:0;stroke-opacity:1"
     d="m 151.8168,6.7721977 c 0.305,0.436356 0.33732,0.51994 0.37755,0.976282 0.0246,0.27947 0.015,0.513873 -0.0218,0.532687 -0.12953,0.06613 -0.67692,0.01685 -1.11443,-0.100378 -0.50488,-0.135281 -0.94345,-0.380497 -1.2796,-0.715462 -0.26093,-0.260025 -0.59107,-0.691855 -0.57494,-0.752052 0.01,-0.03671 2.19304,-0.45165 2.25354,-0.428356 0.0143,0.0059 0.17625,0.224806 0.35969,0.487279 z"
     id="path4183"
     inkscape:connector-curvature="0" /><path
     style="fill:none;fill-opacity:1;stroke:#3552ce;stroke-width:1;stroke-linecap:square;stroke-miterlimit:4;stroke-dasharray:12, 12;stroke-dashoffset:0;stroke-opacity:1"
     d="m 152.48344,2.1396567 c -0.1382,0.01773 -0.25751,0.0555 -0.26514,0.08395 -0.008,0.02849 0.0405,0.609501 0.10696,1.291218 0.0665,0.681717 0.1142,1.264163 0.10612,1.294319 -0.008,0.03014 -0.0817,-0.01361 -0.16362,-0.09706 l -0.14893,-0.15192 -1.94286,0.339281 c -1.06857,0.186601 -1.95184,0.323717 -1.96282,0.304708 -0.011,-0.01899 -0.007,-0.203258 0.009,-0.409445 0.0381,-0.496743 0.29451,-1.235318 0.58963,-1.698724 l 0.23875,-0.374871 0.13943,0.168862 c 0.0767,0.09291 0.16441,0.175552 0.19493,0.18373 0.0305,0.0082 0.23442,-0.138807 0.45312,-0.326624 0.37357,-0.320833 0.74891,-0.529415 1.21259,-0.673868 0.39102,-0.121808 1.0487,-0.148766 1.37028,-0.05616 l 0.31401,0.09035 -0.25129,0.03226 z"
     id="path4187"
     inkscape:connector-curvature="0" /><path
     style="fill:none;fill-opacity:1;stroke:#3552ce;stroke-width:1;stroke-linecap:square;stroke-miterlimit:4;stroke-dasharray:12, 12;stroke-dashoffset:0;stroke-opacity:1"
     d="m 151.72753,2.1323317 c -0.0232,0.09162 -0.006,0.554884 0.0385,1.029425 0.0444,0.47455 0.0582,0.877927 0.0307,0.896402 -0.0276,0.01849 -0.70573,0.14694 -1.50703,0.285468 l -1.45691,0.251866 0.0559,-0.286056 c 0.0307,-0.157332 0.10398,-0.396934 0.16281,-0.532414 0.0974,-0.224408 0.12239,-0.242204 0.28095,-0.19972 0.13672,0.03664 0.24803,-0.0064 0.51891,-0.200653 0.18966,-0.136015 0.6126,-0.403744 0.93986,-0.594958 l 0.59501,-0.347666 -0.0772,-0.207086 -0.0772,-0.207087 0.24619,-0.03321 c 0.31256,-0.04213 0.29915,-0.04996 0.24956,0.145656 z"
     id="path4189"
     inkscape:connector-curvature="0" /><path
     style="fill:none;fill-opacity:1;stroke:#3552ce;stroke-width:1;stroke-linecap:square;stroke-miterlimit:4;stroke-dasharray:12, 12;stroke-dashoffset:0;stroke-opacity:1"
     d="m 151.24973,3.2663917 c -0.001,0.09072 0.002,0.210568 0.008,0.266409 0.008,0.07574 -0.12301,0.12463 -0.51442,0.192229 -0.2888,0.04987 -0.52965,0.08194 -0.53524,0.07126 -0.006,-0.01082 0.22708,-0.171376 0.51704,-0.357098 0.50769,-0.325179 0.5271,-0.331575 0.52457,-0.172798 z"
     id="path4191"
     inkscape:connector-curvature="0" /><path
     style="fill:none;fill-opacity:1;stroke:#3552ce;stroke-width:1;stroke-linecap:square;stroke-miterlimit:4;stroke-dasharray:12, 12;stroke-dashoffset:0;stroke-opacity:1"
     d="m 151.42659,7.1337117 c 0.17321,0.263965 0.26881,0.55639 0.19568,0.598613 -0.17068,0.09854 -1.39589,-0.4348 -1.45562,-0.633612 -0.0159,-0.05303 0.95751,-0.26387 1.05856,-0.229257 0.02,0.0064 0.11049,0.125679 0.20138,0.264256 z"
     id="path4193"
     inkscape:connector-curvature="0" /><path
     style="fill:none;fill-opacity:1;stroke:#3552ce;stroke-width:1;stroke-linecap:square;stroke-miterlimit:4;stroke-dasharray:12, 12;stroke-dashoffset:0;stroke-opacity:1"
     d="m 154.22132,2.9496427 c 0.83646,0.924949 1.06276,1.85765 0.73673,3.036463 -0.0876,0.31704 -0.21899,0.671233 -0.2918,0.787119 l -0.13236,0.210711 -0.17967,-0.326673 c -0.16057,-0.291936 -0.19838,-0.526018 -0.35567,-2.201736 -0.0968,-1.031293 -0.15672,-1.869909 -0.13317,-1.863598 0.0236,0.0063 0.18373,0.167282 0.35594,0.357713 z"
     id="path4195"
     inkscape:connector-curvature="0" /><path
     style="fill:none;fill-opacity:1;stroke:#3552ce;stroke-width:1;stroke-linecap:square;stroke-miterlimit:4;stroke-dasharray:12, 12;stroke-dashoffset:0;stroke-opacity:1"
     d="m 153.31624,2.2354457 c 0.0259,0.01109 0.068,0.0297 0.0934,0.04148 0.0434,0.01991 0.046,0.02164 0.0421,0.02856 -0.021,0.03733 -0.0442,0.07946 -0.048,0.08705 -0.004,0.0082 -0.0105,0.0099 -0.0576,0.01449 -0.0292,0.0029 -0.0616,0.0061 -0.0722,0.0073 l -0.0192,0.0021 -0.01,-0.102353 c -0.005,-0.05627 -0.009,-0.103608 -0.009,-0.105151 0.001,-0.0048 0.0284,0.0045 0.0798,0.02657 z"
     id="path4197"
     inkscape:connector-curvature="0" /><path
     style="fill:none;fill-opacity:1;stroke:#3552ce;stroke-width:1;stroke-linecap:square;stroke-miterlimit:4;stroke-dasharray:12, 12;stroke-dashoffset:0;stroke-opacity:1"
     d="m 154.50562,4.3724037 c 0.0763,0.247808 0.10597,0.521663 0.0877,0.809722 -0.005,0.08021 -0.008,0.10085 -0.011,0.08807 -0.005,-0.01947 -0.0904,-0.918489 -0.0876,-0.922693 0.001,-0.0018 0.006,0.0089 0.0109,0.02488 z"
     id="path4199"
     inkscape:connector-curvature="0" /><path
     style="fill:none;fill-opacity:1;stroke:#3552ce;stroke-width:1;stroke-linecap:square;stroke-miterlimit:4;stroke-dasharray:12, 12;stroke-dashoffset:0;stroke-opacity:1"
     d="m 77.99918,16.180052 c 0.0997,0.05053 0.220199,0.119483 0.267774,0.153236 0.285151,0.202326 0.606424,0.572095 0.73233,0.842882 l 0.05937,0.127711 -1.02036,0.177929 -1.020368,0.177925 -0.331946,-0.103221 c -0.182563,-0.05679 -0.436138,-0.136978 -0.563487,-0.178244 l -0.231539,-0.07503 0.232335,0.405541 0.232325,0.40554 -0.618019,0.651537 -0.618019,0.651539 -0.09615,-0.181678 c -0.179442,-0.339049 -0.265377,-0.685906 -0.268805,-1.085098 -0.0013,-0.147061 0.01439,-0.235675 0.09505,-0.539021 0.08325,-0.312943 0.109728,-0.386327 0.194135,-0.531335 0.445399,-0.767999 1.280913,-1.205001 2.155587,-1.127456 0.252965,0.02243 0.577633,0.11467 0.799712,0.227213 z"
     id="path4201"
     inkscape:connector-curvature="0" /><path
     style="fill:none;fill-opacity:1;stroke:#3552ce;stroke-width:1;stroke-linecap:square;stroke-miterlimit:4;stroke-dasharray:12, 12;stroke-dashoffset:0;stroke-opacity:1"
     d="m 77.502301,16.026041 c -0.0046,0.01611 -0.04831,0.106111 -0.09707,0.199993 -0.04876,0.09388 -0.0874,0.17319 -0.08574,0.176273 0.0013,0.0029 0.11593,0.06251 0.254019,0.132085 0.138099,0.06957 0.282112,0.145162 0.320042,0.167967 0.08845,0.05318 0.285542,0.215857 0.28038,0.231412 -0.0022,0.0066 -0.257818,0.05511 -0.568112,0.107927 l -0.564168,0.09603 -0.520343,-0.165163 c -0.286192,-0.09084 -0.528201,-0.169566 -0.537806,-0.174946 -0.02888,-0.01623 0.301177,-0.196219 0.453949,-0.247552 0.07839,-0.02634 0.273225,-0.0696 0.432988,-0.09614 0.159774,-0.02654 0.299948,-0.05296 0.31151,-0.05871 0.01186,-0.0056 0.0062,-0.106094 -0.0119,-0.222962 -0.02268,-0.146395 -0.02411,-0.214885 -0.0047,-0.220173 0.01552,-0.0042 0.09953,0.0041 0.186778,0.01849 0.127856,0.0211 0.156975,0.03181 0.15019,0.05547 z"
     id="path4203"
     inkscape:connector-curvature="0" /><path
     style="fill:none;fill-opacity:1;stroke:#3552ce;stroke-width:1;stroke-linecap:square;stroke-miterlimit:4;stroke-dasharray:12, 12;stroke-dashoffset:0;stroke-opacity:1"
     d="m 75.572471,17.770511 0.144966,0.274378 -0.210083,0.224769 -0.210074,0.224773 -0.01438,-0.09585 c -0.03286,-0.219303 -0.02164,-0.330481 0.06256,-0.6202 l 0.08185,-0.282298 0.144965,0.274379 z"
     id="path4205"
     inkscape:connector-curvature="0" /><path
     style="fill:none;fill-opacity:1;stroke:#3552ce;stroke-width:1;stroke-linecap:square;stroke-miterlimit:4;stroke-dasharray:12, 12;stroke-dashoffset:0;stroke-opacity:1"
     d="m 77.288075,19.673438 c 0.205095,0.345892 0.364112,0.637182 0.353365,0.647309 -0.0339,0.03187 -0.450445,0.09797 -0.625789,0.09928 -0.356092,0.0027 -0.809502,-0.108576 -1.07979,-0.264907 l -0.07198,-0.04164 0.505999,-0.533297 c 0.278307,-0.293311 0.514847,-0.533825 0.525643,-0.534474 0.01083,-6.19e-4 0.187455,0.281827 0.39256,0.627722 z"
     id="path4207"
     inkscape:connector-curvature="0" /><path
     style="fill:none;fill-opacity:1;stroke:#3552ce;stroke-width:1;stroke-linecap:square;stroke-miterlimit:4;stroke-dasharray:12, 12;stroke-dashoffset:0;stroke-opacity:1"
     d="m 78.500841,19.174319 c 0.185676,0.05834 0.358078,0.112987 0.383122,0.121406 0.04226,0.01422 0.04239,0.02068 0.0023,0.08951 -0.06371,0.109504 -0.312699,0.40234 -0.336634,0.395927 -0.0114,-0.0031 -0.116938,-0.170107 -0.234637,-0.371258 -0.117689,-0.201148 -0.199988,-0.360316 -0.182885,-0.353708 0.01706,0.0066 0.183008,0.05976 0.368691,0.11812 z"
     id="path4209"
     inkscape:connector-curvature="0" /><path
     style="fill:none;fill-opacity:1;stroke:#3552ce;stroke-width:1;stroke-linecap:square;stroke-miterlimit:4;stroke-dasharray:12, 12;stroke-dashoffset:0;stroke-opacity:1"
     d="m 79.241053,18.321369 c -10e-4,0.01146 -0.0015,0.02111 -0.0025,0.02107 -3.87e-4,1.3e-4 -0.02075,-0.006 -0.0453,-0.01369 l -0.04462,-0.01392 0.03902,-0.0069 c 0.05782,-0.01023 0.05452,-0.01107 0.05295,0.01335 z"
     id="path4211"
     inkscape:connector-curvature="0" /><path
     style="fill:none;fill-opacity:1;stroke:#3552ce;stroke-width:1;stroke-linecap:square;stroke-miterlimit:4;stroke-dasharray:12, 12;stroke-dashoffset:0;stroke-opacity:1"
     d="m 76.826587,19.880354 0.01706,0.02867 -0.01233,-0.0011 c -0.02851,-0.0026 -0.06683,-0.0083 -0.06782,-0.01 -0.0014,-0.0024 0.04125,-0.04768 0.04402,-0.04683 9.55e-4,2.97e-4 0.0097,0.01353 0.01907,0.02928 z"
     id="path4213"
     inkscape:connector-curvature="0" /><path
     style="fill:none;fill-opacity:1;stroke:#3552ce;stroke-width:1;stroke-linecap:square;stroke-miterlimit:4;stroke-dasharray:12, 12;stroke-dashoffset:0;stroke-opacity:1"
     d="m 110.96223,72.598652 c 0.71786,0.641259 1.26392,1.320016 1.21345,1.508349 -0.0505,0.188333 -0.68051,0.682349 -1.40012,1.097813 -1.76025,1.016279 -3.21441,0.894427 -4.6738,-0.39164 -1.10975,-0.977951 -1.73706,-2.464814 -1.46627,-3.475401 0.16052,-0.599076 0.30647,-0.661263 1.47936,-0.630347 1.22571,0.03231 1.32705,0.0759 1.74526,0.75071 l 0.44399,0.716412 0.51292,-0.430266 c 0.28211,-0.236646 0.58652,-0.403557 0.67646,-0.37091 0.0899,0.03269 0.75088,0.584022 1.46875,1.22528 z"
     id="path4215"
     inkscape:connector-curvature="0" /><path
     style="fill:none;fill-opacity:1;stroke:#3552ce;stroke-width:1;stroke-linecap:square;stroke-miterlimit:4;stroke-dasharray:12, 12;stroke-dashoffset:0;stroke-opacity:1"
     d="m 110.01749,71.777792 c 0.19615,0.197654 0.32238,0.489989 0.2805,0.649632 -0.0419,0.159644 0.22102,0.583882 0.58422,0.942751 l 0.66036,0.652489 -1.26607,0.673422 c -1.06534,0.566656 -1.43022,0.629282 -2.30147,0.395016 -1.28074,-0.344414 -2.27207,-1.34055 -2.6359,-2.648807 -0.14932,-0.536948 -0.36943,-1.00251 -0.48913,-1.034582 -0.11969,-0.03207 -0.17686,-0.210475 -0.12702,-0.396451 0.0554,-0.206718 0.59634,-0.324806 1.39187,-0.303836 1.22571,0.03231 1.32705,0.0759 1.74526,0.75071 l 0.44399,0.716412 0.51292,-0.430266 c 0.57452,-0.481936 0.6922,-0.478651 1.20047,0.03351 z"
     id="path4217"
     inkscape:connector-curvature="0" /><path
     style="fill:none;fill-opacity:1;stroke:#3552ce;stroke-width:1;stroke-linecap:square;stroke-miterlimit:4;stroke-dasharray:12, 12;stroke-dashoffset:0;stroke-opacity:1"
     d="m 107.89203,71.487048 c 0.36631,0.642393 0.42297,0.667483 0.80979,0.358568 0.37854,-0.302299 0.47285,-0.226024 1.04924,0.848574 l 0.63332,1.180728 -0.64999,0.330407 c -0.93205,0.473775 -1.43027,0.459817 -2.3237,-0.0651 -0.81826,-0.48075 -2.31959,-3.142518 -1.90226,-3.372587 0.11983,-0.06607 0.61655,-0.08663 1.10381,-0.04571 0.71441,0.06 0.96218,0.208123 1.27979,0.765125 z"
     id="path4219"
     inkscape:connector-curvature="0" /><path
     style="fill:none;fill-opacity:1;stroke:#3552ce;stroke-width:1;stroke-linecap:square;stroke-miterlimit:4;stroke-dasharray:12, 12;stroke-dashoffset:0;stroke-opacity:1"
     d="m 110.62135,67.931621 c 1.65896,0.868658 2.59836,2.719806 2.26642,4.466103 l -0.0689,0.362615 -1.74376,-1.546505 -1.74376,-1.546506 -0.61536,-0.0092 -0.61536,-0.0092 -0.54171,-0.909013 -0.5417,-0.909012 0.35306,-0.118927 c 0.41925,-0.141225 0.85553,-0.216949 1.31939,-0.229008 0.44663,-0.01161 1.53584,0.241363 1.93171,0.44865 z"
     id="path4221"
     inkscape:connector-curvature="0" /><path
     style="fill:none;fill-opacity:1;stroke:#3552ce;stroke-width:1;stroke-linecap:square;stroke-miterlimit:4;stroke-dasharray:12, 12;stroke-dashoffset:0;stroke-opacity:1"
     d="m 110.06408,67.879438 c -0.0423,0.0865 -0.0864,0.18295 -0.098,0.214338 -0.0144,0.03894 0.11206,0.131463 0.3977,0.291023 0.93516,0.522376 1.57227,1.271336 1.89271,2.224996 0.0901,0.268029 0.1765,0.747715 0.1849,1.026117 0.003,0.08946 -0.22102,-0.09322 -1.4506,-1.184491 l -1.4538,-1.290261 -0.5689,-0.01125 -0.5689,-0.01125 -0.14275,-0.241505 c -0.0785,-0.132827 -0.16048,-0.246257 -0.18217,-0.252067 -0.0217,-0.0058 -0.13182,0.04133 -0.24476,0.104755 l -0.20535,0.115319 -0.30123,-0.521758 -0.30124,-0.521759 0.36233,-0.11702 c 0.79653,-0.257254 1.39517,-0.286244 2.20062,-0.106568 l 0.55637,0.124108 -0.0769,0.15727 z"
     id="path4223"
     inkscape:connector-curvature="0" /><path
     style="fill:none;fill-opacity:1;stroke:#3552ce;stroke-width:1;stroke-linecap:square;stroke-miterlimit:4;stroke-dasharray:12, 12;stroke-dashoffset:0;stroke-opacity:1"
     d="m 109.52132,67.831279 c -0.11446,0.298684 -0.0835,0.47719 0.11711,0.676078 0.14805,0.146754 0.16064,0.142595 -0.39601,0.130942 -0.21271,-0.0045 -0.42037,-0.0073 -0.46149,-0.0063 -0.0423,0.001 -0.13477,-0.0835 -0.21321,-0.19501 -0.16858,-0.23968 -0.34521,-0.332713 -0.57328,-0.301972 l -0.16836,0.02269 -0.1473,-0.259664 -0.14731,-0.259666 0.40306,-0.07413 c 0.47426,-0.08722 0.97468,-0.0984 1.3866,-0.03099 l 0.29582,0.04841 -0.0956,0.249556 z"
     id="path4225"
     inkscape:connector-curvature="0" /><path
     style="fill:none;fill-opacity:1;stroke:#3552ce;stroke-width:1;stroke-linecap:square;stroke-miterlimit:4;stroke-dasharray:12, 12;stroke-dashoffset:0;stroke-opacity:1"
     d="m 106.49839,68.978613 c 0.19542,0.339599 0.34456,0.622998 0.33141,0.629779 -0.0132,0.0068 -0.38156,0.0024 -0.8187,-0.0096 -0.43714,-0.01208 -0.83035,-0.02107 -0.87381,-0.01999 -0.0731,0.0018 -0.0682,-0.01404 0.0657,-0.212647 0.1665,-0.246982 0.61236,-0.743493 0.80726,-0.898977 l 0.13286,-0.105987 0.35532,0.617449 z"
     id="path4227"
     inkscape:connector-curvature="0" /><path
     style="fill:none;fill-opacity:1;stroke:#3552ce;stroke-width:1;stroke-linecap:square;stroke-miterlimit:4;stroke-dasharray:12, 12;stroke-dashoffset:0;stroke-opacity:1"
     d="m 107.61186,70.841863 0.0851,0.147306 -0.25599,0.150396 -0.256,0.150396 0.26412,0.460602 c 0.29172,0.508741 0.47484,0.697501 0.74755,0.770574 0.21203,0.05681 0.32887,0.03796 0.56833,-0.09167 l 0.17479,-0.09463 0.26848,0.459096 c 0.14767,0.252502 0.30861,0.550286 0.35764,0.661741 l 0.0892,0.202646 -0.28849,0.144648 c -0.4291,0.215143 -0.7086,0.260116 -1.04927,0.168833 -0.69052,-0.185024 -1.1105,-0.602214 -1.79301,-1.781102 -0.24265,-0.419132 -0.45167,-0.808807 -0.46448,-0.865944 -0.0221,-0.09837 -0.006,-0.103745 0.29507,-0.10133 0.1751,0.0014 0.3236,-0.01781 0.32999,-0.0427 0.006,-0.02489 0.008,-0.147344 0.004,-0.272117 -0.004,-0.124774 0.003,-0.232649 0.0149,-0.239726 0.0321,-0.01853 0.68027,-0.01085 0.75777,0.009 0.0359,0.0092 0.10347,0.08298 0.15024,0.163992 z"
     id="path4229"
     inkscape:connector-curvature="0" /><path
     style="fill:none;fill-opacity:1;stroke:#3552ce;stroke-width:1;stroke-linecap:square;stroke-miterlimit:4;stroke-dasharray:12, 12;stroke-dashoffset:0;stroke-opacity:1"
     d="m 108.83244,73.208414 c 0.0543,0.09753 0.0952,0.190327 0.091,0.206215 -0.004,0.01589 -0.0774,0.04413 -0.16252,0.06276 -0.21355,0.04673 -0.6485,-0.106016 -0.86953,-0.305374 -0.18886,-0.170342 -0.43871,-0.445628 -0.41624,-0.458604 0.008,-0.0048 0.11978,0.06106 0.24767,0.146378 0.25801,0.172124 0.59042,0.248624 0.84153,0.193674 0.176,-0.03852 0.15301,-0.0518 0.26811,0.154952 z"
     id="path4231"
     inkscape:connector-curvature="0" /><path
     style="fill:none;fill-opacity:1;stroke:#3552ce;stroke-width:1;stroke-linecap:square;stroke-miterlimit:4;stroke-dasharray:12, 12;stroke-dashoffset:0;stroke-opacity:1"
     d="m 109.32691,71.028774 0.38729,0.341695 -0.0563,0.05582 c -0.031,0.0307 -0.0574,0.05669 -0.0588,0.05774 -0.001,0.0011 -0.0135,-0.0099 -0.027,-0.02453 -0.13068,-0.141439 -0.30279,-0.238119 -0.46387,-0.260574 -0.042,-0.0059 -0.0854,-0.01126 -0.0963,-0.01199 -0.0172,-0.0012 -0.0398,-0.03493 -0.17015,-0.254743 l -0.15029,-0.253409 0.10815,0.0032 c 0.0595,0.0018 0.11531,0.0036 0.12406,0.0041 0.01,5.27e-4 0.1671,0.134324 0.40322,0.342644 z"
     id="path4233"
     inkscape:connector-curvature="0" /><path
     style="fill:none;fill-opacity:1;stroke:#3552ce;stroke-width:1;stroke-linecap:square;stroke-miterlimit:4;stroke-dasharray:12, 12;stroke-dashoffset:0;stroke-opacity:1"
     d="m 110.21307,68.877563 c 0.0134,0.0082 0.0924,0.05964 0.17562,0.114289 0.39114,0.256876 0.69892,0.550634 0.95325,0.909818 0.0771,0.108884 0.23961,0.380849 0.23066,0.386016 -0.004,0.0023 -1.47951,-1.298491 -1.48874,-1.312564 -7.3e-4,-0.0012 0.01,-0.01519 0.0238,-0.03115 0.0139,-0.01596 0.0329,-0.04151 0.0423,-0.05679 0.0188,-0.03051 0.027,-0.03176 0.0631,-0.0096 z"
     id="path4235"
     inkscape:connector-curvature="0" /><path
     style="fill:none;fill-opacity:1;stroke:#3552ce;stroke-width:1;stroke-linecap:square;stroke-miterlimit:4;stroke-dasharray:12, 12;stroke-dashoffset:0;stroke-opacity:1"
     d="m 108.95785,68.019208 c -0.005,0.084 -0.006,0.08453 -0.0224,0.06902 -0.008,-0.0079 -0.0165,-0.01708 -0.0178,-0.02051 -10e-4,-0.0034 -0.0141,-0.02057 -0.0285,-0.03812 -0.0284,-0.03467 -0.0273,-0.03675 0.0178,-0.03298 0.0166,0.0014 0.0352,0.002 0.0413,0.0013 0.007,-7.77e-4 0.0106,0.0069 0.01,0.02126 z"
     id="path4237"
     inkscape:connector-curvature="0" /><path
     style="fill:none;fill-opacity:1;stroke:#3552ce;stroke-width:1;stroke-linecap:square;stroke-miterlimit:4;stroke-dasharray:12, 12;stroke-dashoffset:0;stroke-opacity:1"
     d="m 105.0055,70.608272 c -0.003,0.0067 -0.009,0.01893 -0.0123,0.0271 l -0.007,0.01485 -0.19229,0.02163 c -0.10576,0.01189 -0.19268,0.02094 -0.19317,0.02011 -4.8e-4,-8.38e-4 0.004,-0.02451 0.0104,-0.05261 l 0.0113,-0.05107 0.18844,0.0044 c 0.10364,0.0024 0.19103,0.0042 0.19421,0.0039 0.004,-4.58e-4 0.004,0.0021 -3e-5,0.0117 z"
     id="path4239"
     inkscape:connector-curvature="0" /><path
     style="fill:none;fill-opacity:1;stroke:#3552ce;stroke-width:1;stroke-linecap:square;stroke-miterlimit:4;stroke-dasharray:12, 12;stroke-dashoffset:0;stroke-opacity:1"
     d="m 106.97704,71.93435 c 0.0844,0.145247 0.16791,0.285999 0.18555,0.312783 0.0281,0.0427 0.0313,0.0494 0.0259,0.05446 -0.003,0.0031 -0.007,0.0055 -0.008,0.0052 -0.006,-0.0017 -0.19209,-0.314467 -0.29995,-0.504975 -0.062,-0.109569 -0.0708,-0.127216 -0.0643,-0.129215 0.006,-0.002 0.0301,0.03636 0.16107,0.261769 z"
     id="path4241"
     inkscape:connector-curvature="0" /><path
     style="fill:none;fill-opacity:1;stroke:#3552ce;stroke-width:1;stroke-linecap:square;stroke-miterlimit:4;stroke-dasharray:12, 12;stroke-dashoffset:0;stroke-opacity:1"
     d="m 6.2575162,90.622208 c 0.3368998,0.13754 0.8135746,0.41383 0.7910818,0.45852 -0.0063,0.0119 -1.0298289,1.09446 -2.2751049,2.40551 -1.2452757,1.31105 -2.2619057,2.38759 -2.2591757,2.39231 0.0029,0.005 1.333456,-0.67016 2.9571825,-1.49973 l 2.9522255,-1.50832 0.041437,0.13243 c 0.07187,0.22977 0.1443403,0.65397 0.1568849,0.91829 0.057751,1.21744 -0.4791528,2.3876 -1.4394981,3.13729 -0.5342197,0.41703 -1.2720791,0.70842 -1.9516656,0.77074 -0.7945516,0.0729 -1.6787692,-0.13914 -2.3310902,-0.55892 -1.283777,-0.82612 -1.93228895,-2.25637 -1.701838,-3.75328 0.296962,-1.92893 2.070964,-3.30975 4.030437,-3.13715 0.2361933,0.0208 0.8277517,0.16009 1.0291432,0.24231 z"
     id="path4243"
     inkscape:connector-curvature="0" /><path
     style="fill:none;fill-opacity:1;stroke:#3552ce;stroke-width:1;stroke-linecap:square;stroke-miterlimit:4;stroke-dasharray:12, 12;stroke-dashoffset:0;stroke-opacity:1"
     d="m 8.4882334,93.091318 c 0.4150251,1.48851 -0.1195208,3.06858 -1.3532675,4.00019 -0.2033364,0.15353 -0.6076547,0.38451 -0.8361139,0.47764 -0.4346268,0.17718 -0.9717039,0.28049 -1.4300604,0.27507 -0.6466354,-0.008 -1.3605762,-0.20429 -1.8787912,-0.51749 -0.09181,-0.0555 -0.169273,-0.10496 -0.172145,-0.10993 -0.0028,-0.005 0.06199,-0.0845 0.144082,-0.17685 0.08218,-0.0923 0.150535,-0.17226 0.151997,-0.17772 0.0015,-0.005 -0.11322,-0.11482 -0.254843,-0.24303 l -0.257502,-0.23311 0.09533,-0.0366 c 0.105144,-0.0404 0.610191,-0.29522 2.9160075,-1.47105 0.8525412,-0.43475 1.5544061,-0.79666 1.5596998,-0.80425 0.00515,-0.008 -0.040618,-0.11384 -0.1020776,-0.23615 -0.06144,-0.1223 -0.1091097,-0.22327 -0.105932,-0.22439 0.00339,-0.001 0.3158549,-0.15989 0.6948534,-0.35282 0.3789985,-0.19293 0.7070026,-0.35845 0.7289012,-0.36781 0.033909,-0.0145 0.048718,0.0149 0.099861,0.19834 z"
     id="path4245"
     inkscape:connector-curvature="0" /><path
     style="fill:none;fill-opacity:1;stroke:#3552ce;stroke-width:1;stroke-linecap:square;stroke-miterlimit:4;stroke-dasharray:12, 12;stroke-dashoffset:0;stroke-opacity:1"
     d="m 8.0419631,93.439798 c 0.1065661,0.5353 0.1019568,0.86368 -0.019463,1.38486 -0.1369563,0.58802 -0.352604,1.00414 -0.7485187,1.44473 -0.2424018,0.26974 -0.4864219,0.46063 -0.8443074,0.66046 -0.5285086,0.29511 -1.1584948,0.43733 -1.7532531,0.39581 -0.2241169,-0.0157 -0.7102291,-0.12148 -0.9265025,-0.20172 l -0.158136,-0.0587 0.01871,-0.11657 c 0.02201,-0.13738 0.0057,-0.22808 -0.06142,-0.34137 l -0.04906,-0.0827 0.610646,-0.31021 c 0.3358626,-0.17062 0.640513,-0.3247 0.6770192,-0.3424 l 0.066392,-0.0322 -0.1126281,-0.22378 c -0.061955,-0.12309 -0.1105315,-0.22875 -0.1079731,-0.23482 0.00257,-0.006 0.575478,-0.30075 1.2731461,-0.65484 0.6976682,-0.35409 1.2700372,-0.64892 1.2719291,-0.65517 0.00188,-0.006 -0.046437,-0.11067 -0.107436,-0.23207 l -0.1108739,-0.22071 0.1375052,-0.0708 c 0.5243478,-0.26993 0.8547379,-0.43441 0.8666101,-0.43147 0.00777,0.002 0.042566,0.14754 0.077611,0.32364 z"
     id="path4247"
     inkscape:connector-curvature="0" /><path
     style="fill:none;fill-opacity:1;stroke:#3552ce;stroke-width:1;stroke-linecap:square;stroke-miterlimit:4;stroke-dasharray:12, 12;stroke-dashoffset:0;stroke-opacity:1"
     d="m 7.5534339,93.599648 c 0.064426,0.3606 0.065277,0.59933 0.00337,0.94774 -0.1151767,0.64814 -0.394081,1.15622 -0.8714531,1.58763 -0.1785931,0.16138 -0.5604761,0.39247 -0.8180815,0.49504 -0.2517311,0.10024 -0.6761944,0.18551 -0.941866,0.18922 -0.1717939,0.002 -0.6766128,-0.0615 -0.6916528,-0.0876 -0.00345,-0.006 0.814191,-0.42029 1.2385485,-0.62653 l 0.071547,-0.0348 -0.1121534,-0.21938 c -0.061674,-0.12065 -0.109834,-0.22803 -0.1069992,-0.23861 0.00283,-0.0106 0.4702909,-0.2568 1.0387934,-0.54716 l 1.0336488,-0.52793 -0.057599,-0.12389 c -0.031645,-0.0681 -0.069671,-0.14092 -0.084416,-0.16173 -0.014716,-0.0208 -0.044489,-0.0878 -0.066196,-0.14891 -0.021631,-0.0611 -0.082571,-0.19578 -0.1353557,-0.29935 -0.052795,-0.10356 -0.087124,-0.19223 -0.076297,-0.19705 0.010624,-0.005 0.1343086,-0.0675 0.2744123,-0.13922 l 0.2547332,-0.13045 0.046976,0.26294 z"
     id="path4249"
     inkscape:connector-curvature="0" /><path
     style="fill:none;fill-opacity:1;stroke:#3552ce;stroke-width:1;stroke-linecap:square;stroke-miterlimit:4;stroke-dasharray:12, 12;stroke-dashoffset:0;stroke-opacity:1"
     d="m 6.0838431,91.104378 c 0.089921,0.0346 0.1653924,0.0663 0.1677489,0.0705 0.002,0.004 -0.2215635,0.24571 -0.4975945,0.53663 -2.1570041,2.27335 -3.2688801,3.44957 -3.4719461,3.67288 l -0.237836,0.26154 -0.08036,-0.17522 c -0.239238,-0.52166 -0.335305,-1.07987 -0.287773,-1.67203 0.02446,-0.3042 0.175841,-0.84557 0.310065,-1.10888 0.294754,-0.57809 0.690527,-1.00784 1.227187,-1.33252 0.7304011,-0.44191 1.4853652,-0.57474 2.3080725,-0.40611 0.1848715,0.0379 0.3502714,0.0737 0.3675603,0.0796 0.017259,0.006 0.1049897,0.039 0.1948912,0.0736 z"
     id="path4251"
     inkscape:connector-curvature="0" /><path
     style="fill:none;fill-opacity:1;stroke:#3552ce;stroke-width:1;stroke-linecap:square;stroke-miterlimit:4;stroke-dasharray:12, 12;stroke-dashoffset:0;stroke-opacity:1"
     d="m 5.5375975,91.106548 c -0.030428,0.0788 -0.077568,0.16817 -0.1048741,0.1986 -0.067773,0.0756 -2.996684,3.17231 -3.105651,3.2836 l -0.08711,0.089 -0.02278,-0.10702 c -0.03361,-0.15779 -0.04984,-0.47403 -0.03472,-0.67706 0.01554,-0.20869 0.153701,-0.74672 0.237912,-0.92654 0.227347,-0.48528 0.592827,-0.88725 1.066216,-1.17274 0.252916,-0.15253 0.4675194,-0.24464 0.8240842,-0.35373 0.1417666,-0.0434 0.2307355,-0.0826 0.2288186,-0.10093 -0.00179,-0.0165 -0.030788,-0.12001 -0.06463,-0.23009 l -0.061477,-0.20014 0.1583391,-0.0164 c 0.2538019,-0.0263 0.5974791,-0.0138 0.8173378,0.0298 l 0.203844,0.0404 -0.055262,0.14326 z"
     id="path4253"
     inkscape:connector-curvature="0" /><path
     style="fill:none;fill-opacity:1;stroke:#3552ce;stroke-width:1;stroke-linecap:square;stroke-miterlimit:4;stroke-dasharray:12, 12;stroke-dashoffset:0;stroke-opacity:1"
     d="m 3.916868,92.154788 c -0.00575,0.0253 -1.0678426,1.14724 -1.0748296,1.13514 -0.0028,-0.005 0.03094,-0.0807 0.07437,-0.1682 0.17638,-0.35148 0.454422,-0.65075 0.801106,-0.86214 0.111986,-0.0683 0.2016789,-0.11544 0.1993459,-0.1048 z"
     id="path4255"
     inkscape:connector-curvature="0" /><path
     style="fill:none;fill-opacity:1;stroke:#3552ce;stroke-width:1;stroke-linecap:square;stroke-miterlimit:4;stroke-dasharray:12, 12;stroke-dashoffset:0;stroke-opacity:1"
     d="m 6.4944347,95.601258 c -0.00866,0.0323 -0.2908807,0.27328 -0.3688747,0.31495 l -0.069828,0.0373 -0.034657,-0.06 -0.034658,-0.06 0.2100773,-0.10915 c 0.242659,-0.12607 0.3055888,-0.1521 0.2978346,-0.12316 z"
     id="path4257"
     inkscape:connector-curvature="0" /><path
     style="fill:none;fill-opacity:1;stroke:#3552ce;stroke-width:1;stroke-linecap:square;stroke-miterlimit:4;stroke-dasharray:12, 12;stroke-dashoffset:0;stroke-opacity:1"
     d="m 7.881533,91.860638 c 0.039402,0.0492 0.069097,0.0956 0.065948,0.10316 -0.01056,0.0239 -0.5588661,0.29473 -0.5674408,0.27987 -0.00413,-0.008 0.090365,-0.11741 0.2108154,-0.24342 l 0.2190903,-0.2291 0.071578,0.0895 z"
     id="path4259"
     inkscape:connector-curvature="0" /><path
     style="fill:none;fill-opacity:1;stroke:#3552ce;stroke-width:1;stroke-linecap:square;stroke-miterlimit:4;stroke-dasharray:12, 12;stroke-dashoffset:0;stroke-opacity:1"
     d="m 54.510802,67.640877 c 0.277352,0.09056 0.52165,0.268467 0.69502,0.506152 0.02211,0.03031 0.06207,0.09407 0.08886,0.141694 0.05284,0.09412 0.106506,0.21545 0.09503,0.215017 -0.0041,-1.96e-4 -0.328884,-0.0073 -0.722199,-0.01592 l -0.715107,-0.01565 -0.640172,0.327021 c -0.352089,0.179863 -0.641744,0.325349 -0.64367,0.323303 -0.0094,-0.01 -0.01175,-0.171369 -0.0038,-0.261034 0.04179,-0.467763 0.2986,-0.872521 0.700826,-1.104151 0.349375,-0.201223 0.758184,-0.242795 1.145139,-0.116452 z"
     id="path4261"
     inkscape:connector-curvature="0" /><path
     style="fill:none;fill-opacity:1;stroke:#3552ce;stroke-width:1;stroke-linecap:square;stroke-miterlimit:4;stroke-dasharray:12, 12;stroke-dashoffset:0;stroke-opacity:1"
     d="m 55.344231,69.567663 c -0.06128,0.147561 -0.220594,0.356844 -0.366761,0.481818 -0.100175,0.08563 -0.295145,0.199789 -0.418046,0.244733 -0.278121,0.101709 -0.562447,0.114992 -0.845575,0.0395 -0.209704,-0.05591 -0.380472,-0.139952 -0.524161,-0.257939 l -0.06127,-0.05029 0.03291,-0.0181 c 0.149773,-0.08253 1.013369,-0.516265 1.033991,-0.519315 0.02771,-0.0041 1.140251,0.01995 1.159337,0.02506 0.0068,0.0018 0.0035,0.02156 -0.01047,0.05454 z"
     id="path4263"
     inkscape:connector-curvature="0" /><path
     style="fill:none;fill-opacity:1;stroke:#3552ce;stroke-width:1;stroke-linecap:square;stroke-miterlimit:4;stroke-dasharray:12, 12;stroke-dashoffset:0;stroke-opacity:1"
     d="m 164.46854,114.39295 c 1.39989,0.52382 2.36344,1.91686 2.39472,3.46212 0.006,0.30104 -0.0196,0.45745 -0.16061,0.97687 -0.1873,0.69004 -0.31301,0.94443 -0.69126,1.39884 -0.41421,0.49761 -1.05291,0.95114 -1.62048,1.15067 -0.31697,0.11143 -0.94682,0.22316 -1.26606,0.22458 -0.36629,0.002 -1.20676,-0.18729 -1.55814,-0.35023 -1.32187,-0.61299 -2.17611,-1.97074 -2.16582,-3.44241 0.003,-0.48519 0.19117,-1.22643 0.42058,-1.66025 0.0903,-0.17082 0.17914,-0.30658 0.19737,-0.3017 0.0182,0.005 0.64549,0.54356 1.39393,1.19706 0.74845,0.6535 1.36937,1.19048 1.37984,1.19328 0.0165,0.004 0.66968,-0.71252 0.67823,-0.74443 0.002,-0.007 -0.61246,-0.55732 -1.36492,-1.22394 -0.75245,-0.66661 -1.36224,-1.23391 -1.35507,-1.26065 0.0227,-0.0848 0.73151,-0.50435 1.05426,-0.624 0.32008,-0.11866 0.9159,-0.25832 0.93809,-0.21989 0.007,0.012 0.0475,0.38691 0.0902,0.83327 0.0427,0.44636 0.0832,0.82119 0.09,0.83297 0.0135,0.0234 0.91755,-0.0546 0.98122,-0.0847 0.0216,-0.0102 0.008,-0.35532 -0.0302,-0.76694 -0.0382,-0.41161 -0.066,-0.74986 -0.0617,-0.75166 0.052,-0.0217 0.38749,0.0607 0.65583,0.16112 z"
     id="path4265"
     inkscape:connector-curvature="0" /><path
     style="fill:none;fill-opacity:1;stroke:#3552ce;stroke-width:1;stroke-linecap:square;stroke-miterlimit:4;stroke-dasharray:12, 12;stroke-dashoffset:0;stroke-opacity:1"
     d="m 164.79052,115.13353 c 1.12761,0.69773 1.73352,2.0369 1.48435,3.28066 -0.12651,0.63151 -0.32272,1.06384 -0.66562,1.46662 -0.3303,0.38797 -0.86015,0.794 -1.23482,0.94625 -0.37237,0.15132 -1.11034,0.27288 -1.44792,0.23851 -0.4148,-0.0422 -0.98459,-0.20391 -1.32285,-0.37537 -0.33015,-0.16735 -0.33702,-0.16567 -0.45786,0.11186 l -0.0762,0.17503 -0.16042,-0.10998 c -0.67139,-0.46029 -1.25115,-1.37731 -1.42469,-2.25346 -0.12174,-0.61459 -0.10956,-1.05499 0.0459,-1.65777 0.12381,-0.48021 0.40929,-1.12566 0.4885,-1.10444 0.0182,0.005 0.64549,0.54356 1.39393,1.19706 0.74845,0.6535 1.36937,1.19048 1.37984,1.19328 0.0174,0.005 0.66993,-0.71347 0.67901,-0.74735 0.002,-0.008 -0.0791,-0.0847 -0.18058,-0.17021 l -0.18455,-0.15539 0.15947,-0.1779 c 0.0877,-0.0978 0.16215,-0.18787 0.16541,-0.20005 0.003,-0.0122 -0.0973,-0.11439 -0.22345,-0.22713 l -0.22938,-0.20498 0.50936,-0.0391 c 0.83143,-0.0638 0.97162,-0.20948 0.93338,-0.97006 -0.0135,-0.26922 -0.004,-0.42327 0.0267,-0.41362 0.0265,0.008 0.18069,0.0973 0.34258,0.19751 z"
     id="path4267"
     inkscape:connector-curvature="0" /><path
     style="fill:none;fill-opacity:1;stroke:#3552ce;stroke-width:1;stroke-linecap:square;stroke-miterlimit:4;stroke-dasharray:12, 12;stroke-dashoffset:0;stroke-opacity:1"
     d="m 165.15249,116.12784 c 0.29952,0.34174 0.50929,0.77721 0.5953,1.23579 0.0869,0.46316 0.0751,0.74696 -0.0501,1.21454 -0.16593,0.61926 -0.51766,1.09936 -1.11996,1.5287 -0.32939,0.23479 -0.65862,0.34835 -1.21112,0.41774 -0.40005,0.0502 -1.007,-0.0677 -1.52361,-0.29597 -0.3877,-0.17134 -0.59953,-0.19843 -0.80382,-0.10283 l -0.14719,0.0689 -0.1928,-0.24187 c -0.10604,-0.13303 -0.25306,-0.32551 -0.32671,-0.42775 l -0.13391,-0.18589 -0.18428,0.13494 c -0.10135,0.0742 -0.19865,0.13109 -0.21621,0.12639 -0.0669,-0.0179 -0.29566,-0.66666 -0.36529,-1.03582 -0.1089,-0.57737 -0.0929,-1.02527 0.0576,-1.60881 0.12381,-0.48022 0.40929,-1.12567 0.4885,-1.10444 0.0182,0.005 0.64549,0.54356 1.39393,1.19706 0.74845,0.6535 1.36937,1.19048 1.37984,1.19328 0.0174,0.005 0.66993,-0.71347 0.67901,-0.74735 0.002,-0.008 -0.0791,-0.0847 -0.18058,-0.17021 l -0.18455,-0.15539 0.15947,-0.1779 c 0.0877,-0.0978 0.16215,-0.18787 0.16541,-0.20005 0.003,-0.0122 -0.0978,-0.11519 -0.22462,-0.22891 l -0.23056,-0.20676 0.34194,-0.021 0.34194,-0.021 0.17224,0.2917 0.17224,0.2917 0.27551,-0.17349 c 0.39233,-0.24706 0.45394,-0.31243 0.55973,-0.59381 l 0.0942,-0.25064 0.21846,0.24925 z"
     id="path4269"
     inkscape:connector-curvature="0" /><path
     style="fill:none;fill-opacity:1;stroke:#3552ce;stroke-width:1;stroke-linecap:square;stroke-miterlimit:4;stroke-dasharray:12, 12;stroke-dashoffset:0;stroke-opacity:1"
     d="m 164.97025,116.78549 c 0.14378,0.24904 0.22016,0.45405 0.26984,0.72428 0.0629,0.34216 0.0602,0.4167 -0.0294,0.80802 -0.11954,0.5222 -0.29164,0.80989 -0.69972,1.16969 -0.30703,0.2707 -0.54302,0.39745 -0.86677,0.46551 -0.48105,0.10114 -0.68853,0.0781 -1.57285,-0.17434 -0.45052,-0.12858 -0.8645,-0.22988 -0.92001,-0.22491 -0.0826,0.007 -0.16239,-0.0743 -0.43959,-0.4495 -0.18629,-0.25215 -0.34942,-0.46132 -0.36251,-0.46483 -0.0131,-0.004 -0.0826,0.0337 -0.1544,0.0827 l -0.1306,0.0891 -0.0742,-0.35729 c -0.0426,-0.20531 -0.0666,-0.55159 -0.0563,-0.81404 0.0123,-0.31405 -8.1e-4,-0.46019 -0.0419,-0.46779 -0.0329,-0.006 -0.1481,-0.0192 -0.25608,-0.0291 l -0.19631,-0.0181 0.13149,-0.37026 c 0.14508,-0.40851 0.39742,-0.91668 0.44841,-0.90302 0.0179,0.005 0.64498,0.54343 1.39343,1.19693 0.74845,0.65349 1.36937,1.19047 1.37984,1.19327 0.0174,0.005 0.66993,-0.71347 0.67901,-0.74735 0.002,-0.008 -0.0791,-0.0847 -0.18058,-0.17021 l -0.18455,-0.15539 0.15947,-0.1779 c 0.0877,-0.0978 0.16215,-0.18787 0.16541,-0.20005 0.003,-0.0122 -0.0978,-0.11519 -0.22462,-0.22891 l -0.23056,-0.20676 0.34194,-0.021 0.34194,-0.021 0.16919,0.28887 0.16919,0.28886 0.17997,-0.10019 c 0.099,-0.0551 0.2562,-0.16085 0.34938,-0.23499 0.0932,-0.0741 0.18573,-0.13093 0.20566,-0.12618 0.0199,0.005 0.12648,0.16494 0.23679,0.35599 z"
     id="path4271"
     inkscape:connector-curvature="0" /><path
     style="fill:none;fill-opacity:1;stroke:#3552ce;stroke-width:1;stroke-linecap:square;stroke-miterlimit:4;stroke-dasharray:12, 12;stroke-dashoffset:0;stroke-opacity:1"
     d="m 163.83407,116.60891 0.16287,0.28211 0.16304,-0.0895 0.16304,-0.0895 0.15871,0.26898 c 0.0934,0.15832 0.18734,0.41128 0.22829,0.61482 0.0665,0.33059 0.0645,0.36229 -0.0467,0.71953 -0.0943,0.30307 -0.15072,0.41309 -0.29843,0.58209 -0.25872,0.296 -0.58445,0.49764 -0.90643,0.56113 -0.27289,0.0538 -0.28661,0.0518 -1.20583,-0.1801 l -0.9298,-0.23453 -0.31071,-0.40121 c -0.17089,-0.22067 -0.36538,-0.43407 -0.4322,-0.47422 -0.11361,-0.0683 -0.12172,-0.10121 -0.12509,-0.50798 -0.004,-0.50617 -0.049,-0.70167 -0.19489,-0.85051 -0.11929,-0.12169 -0.0959,-0.17792 0.0264,-0.0633 0.0437,0.0409 0.0853,0.0692 0.0925,0.0628 0.007,-0.006 0.0711,-0.0846 0.14209,-0.17373 0.0709,-0.0892 0.14526,-0.16698 0.16512,-0.17295 0.0199,-0.006 0.49925,0.39113 1.06529,0.88245 0.56599,0.4913 1.03615,0.89516 1.04474,0.89746 0.0152,0.004 0.66765,-0.71858 0.6756,-0.74826 0.002,-0.008 -0.0791,-0.0847 -0.18058,-0.17021 l -0.18455,-0.15539 0.15947,-0.1779 c 0.0877,-0.0978 0.16215,-0.18787 0.16541,-0.20005 0.003,-0.0122 -0.0978,-0.1151 -0.22468,-0.2287 l -0.23061,-0.20655 0.32335,-0.0209 c 0.17784,-0.0115 0.33424,-0.018 0.34755,-0.0144 0.0133,0.004 0.0975,0.13344 0.18709,0.2886 z"
     id="path4273"
     inkscape:connector-curvature="0" /><path
     style="fill:none;fill-opacity:1;stroke:#3552ce;stroke-width:1;stroke-linecap:square;stroke-miterlimit:4;stroke-dasharray:12, 12;stroke-dashoffset:0;stroke-opacity:1"
     d="m 163.56947,117.21461 c 0.10166,0.17822 0.20359,0.32907 0.22652,0.33521 0.0229,0.006 0.10526,-0.0237 0.18296,-0.0664 l 0.14127,-0.0776 0.0579,0.24008 c 0.1355,0.56188 -0.28056,1.20327 -0.8409,1.29633 -0.16404,0.0272 -0.30853,0.001 -0.94876,-0.16922 l -0.75524,-0.20136 -0.32862,-0.37401 c -0.29911,-0.34043 -0.3288,-0.39208 -0.33068,-0.57517 -0.001,-0.11064 0.008,-0.2067 0.0192,-0.21346 0.0118,-0.007 0.33582,0.25807 0.72025,0.58851 0.38443,0.33045 0.71254,0.59297 0.72914,0.58338 0.0724,-0.0418 1.01615,-1.03822 1.02909,-1.08649 0.002,-0.008 -0.0791,-0.0848 -0.18067,-0.17028 l -0.18464,-0.15547 0.12803,-0.14204 c 0.0704,-0.0781 0.13304,-0.1407 0.13917,-0.13906 0.006,0.002 0.0943,0.1488 0.19596,0.32703 z"
     id="path4275"
     inkscape:connector-curvature="0" /><path
     style="fill:none;fill-opacity:1;stroke:#3552ce;stroke-width:1;stroke-linecap:square;stroke-miterlimit:4;stroke-dasharray:12, 12;stroke-dashoffset:0;stroke-opacity:1"
     d="m 162.34163,115.28695 c 0.0269,0.26033 0.0353,0.48117 0.0187,0.49074 -0.0242,0.014 -0.71246,-0.59585 -0.76051,-0.67389 -0.0339,-0.0551 0.55968,-0.32588 0.65716,-0.29976 0.0196,0.005 0.0577,0.22257 0.0846,0.48291 z"
     id="path4277"
     inkscape:connector-curvature="0" /><path
     style="fill:none;fill-opacity:1;stroke:#3552ce;stroke-width:1;stroke-linecap:square;stroke-miterlimit:4;stroke-dasharray:12, 12;stroke-dashoffset:0;stroke-opacity:1"
     d="m 163.65598,118.08024 c -0.04,0.10244 -0.11649,0.20375 -0.20817,0.27567 -0.0466,0.0365 -0.13152,0.0808 -0.13697,0.0713 -0.002,-0.003 0.04,-0.0485 0.29168,-0.31527 l 0.07,-0.0742 -0.0166,0.0425 z"
     id="path4279"
     inkscape:connector-curvature="0" /><path
     style="fill:none;fill-opacity:1;stroke:#3552ce;stroke-width:1;stroke-linecap:square;stroke-miterlimit:4;stroke-dasharray:12, 12;stroke-dashoffset:0;stroke-opacity:1"
     d="m 163.2327,116.37678 c -0.0463,0.0271 -0.083,0.0516 -0.0814,0.0543 0.002,0.003 -0.0121,0.0133 -0.0304,0.0234 l -0.0332,0.0185 -0.0723,-0.0634 c -0.0534,-0.0468 -0.0684,-0.0638 -0.0574,-0.0648 0.0257,-0.002 0.33423,-0.0183 0.34688,-0.0178 0.007,2.2e-4 -0.0259,0.0227 -0.0722,0.0498 z"
     id="path4281"
     inkscape:connector-curvature="0" /></svg>