<?xml version="1.0" encoding="UTF-8" standalone="no"?>
<!-- Generator: Adobe Illustrator 19.0.0, SVG Export Plug-In . SVG Version: 6.00 Build 0)  -->

<svg
   xmlns:dc="http://purl.org/dc/elements/1.1/"
   xmlns:cc="http://creativecommons.org/ns#"
   xmlns:rdf="http://www.w3.org/1999/02/22-rdf-syntax-ns#"
   xmlns:svg="http://www.w3.org/2000/svg"
   xmlns="http://www.w3.org/2000/svg"
   xmlns:sodipodi="http://sodipodi.sourceforge.net/DTD/sodipodi-0.dtd"
   xmlns:inkscape="http://www.inkscape.org/namespaces/inkscape"
   version="1.1"
   id="Phone"
   x="0px"
   y="0px"
   viewBox="-283 374 45 45"
   style="enable-background:new -283 374 45 45;"
   xml:space="preserve"
   inkscape:version="0.91 r13725"
   sodipodi:docname="phone.svg"><metadata
     id="metadata11"><rdf:RDF><cc:Work
         rdf:about=""><dc:format>image/svg+xml</dc:format><dc:type
           rdf:resource="http://purl.org/dc/dcmitype/StillImage" /></cc:Work></rdf:RDF></metadata><defs
     id="defs9" /><sodipodi:namedview
     pagecolor="#ffffff"
     bordercolor="#666666"
     borderopacity="1"
     objecttolerance="10"
     gridtolerance="10"
     guidetolerance="10"
     inkscape:pageopacity="0"
     inkscape:pageshadow="2"
     inkscape:window-width="735"
     inkscape:window-height="480"
     id="namedview7"
     showgrid="false"
     inkscape:zoom="2.6222222"
     inkscape:cx="23.889349"
     inkscape:cy="2.7786979"
     inkscape:window-x="0"
     inkscape:window-y="0"
     inkscape:window-maximized="0"
     inkscape:current-layer="Phone" /><style
     type="text/css"
     id="style3">
	.st0{fill:#FFFFFF;}
</style><path
     class="st0"
     d="M-260.5,374c-12.4,0-22.5,10.1-22.5,22.5s10.1,22.5,22.5,22.5s22.5-10.1,22.5-22.5S-248.1,374-260.5,374z   M-247.1,405.7c-1,1.6-1.9,3.3-6.3,3.4c-4.4,0-9-3.7-12.3-7.3c-3.3-3.2-6.4-7.4-6.4-11.5c0.1-4.3,1.8-5.2,3.4-6.3  c0,0,0.9-0.4,1.6,0.3c0.8,0.7,4.1,4,4.1,4s1.2,1,0.4,2.1c-0.7,0.9-2.2,2.5-2.4,2.7l0.6,1.1c0.8,1.2,2.2,3.4,4.3,5.2  c1.5,1.2,3.9,2.5,3.9,2.5c0.4-0.3,1.8-1.7,2.6-2.3c1.1-0.8,2.1,0.4,2.1,0.4s3.3,3.3,4,4.1C-246.7,404.8-247.1,405.7-247.1,405.7z"
     id="path5"
     style="fill:#004cd1;fill-opacity:1" /></svg>