<?xml version="1.0" encoding="utf-8"?>
<!-- Generator: Adobe Illustrator 19.0.0, SVG Export Plug-In . SVG Version: 6.00 Build 0)  -->
<svg version="1.1" id="Layer_1" xmlns="http://www.w3.org/2000/svg" xmlns:xlink="http://www.w3.org/1999/xlink" x="0px" y="0px"
	 viewBox="0 0 30 28.7" style="enable-background:new 0 0 30 28.7;" xml:space="preserve">
<g>
	<path style="fill:#FFFFFF;" d="M27.6,13.4c-3,4-3.4,3.7-0.9,6c2.4,2.2,2.9,3.3,3,3.5c0,0,1,1.8-1.1,1.8l-4,0.1
		c-0.9,0.2-2-0.6-2-0.6c-1.5-1-2.9-3.7-4-3.4c0,0-1.1,0.4-1.1,2.8c0,0.5-0.2,0.8-0.2,0.8s-0.3,0.3-0.8,0.3h-1.8
		c-4,0.3-7.4-3.4-7.4-3.4S3.4,17.2,0.1,9.4c-0.2-0.5,0-0.8,0-0.8S0.3,8.3,1,8.3l4.3,0C5.7,8.3,6,8.6,6,8.6s0.3,0.2,0.4,0.5
		C7,10.8,8,12.4,8,12.4c1.6,3.2,2.6,3.8,3.2,3.4c0,0,0.8-0.5,0.6-4.4c-0.1-1.4-0.5-2-0.5-2c-0.4-0.5-1-0.6-1.3-0.7
		c-0.2,0,0.2-0.6,0.7-0.8c0.8-0.4,2.1-0.4,3.7-0.4c1.3,0,1.6,0.1,2.1,0.2c1.5,0.4,1,1.7,1,5c0,1.1-0.2,2.5,0.6,3
		c0.3,0.2,1.1,0,3.1-3.4c0,0,0.9-1.6,1.7-3.5c0.1-0.3,0.4-0.5,0.4-0.5s0.3-0.1,0.6-0.1l4.5,0C29.7,8.1,30,8.8,30,8.8
		C30.2,9.4,29.5,10.9,27.6,13.4z"/>
</g>
</svg>
